<svg width="16" height="16" viewBox="0 0 16 16" fill="none" xmlns="http://www.w3.org/2000/svg">
<path d="M13.1822 9.18186C14.0261 8.33793 14.5002 7.19332 14.5002 5.99983C14.5002 4.80633 14.0261 3.66172 13.1822 2.8178C12.3383 1.97387 11.1936 1.49976 10.0002 1.49976C8.80666 1.49976 7.66205 1.97387 6.81812 2.8178" stroke="#198155" stroke-miterlimit="10"/>
<path d="M11.0606 7.06065C11.3381 6.77858 11.493 6.39826 11.4914 6.00256C11.4897 5.60685 11.3318 5.22781 11.052 4.94801C10.7722 4.6682 10.3932 4.51029 9.99747 4.50868C9.60177 4.50707 9.22145 4.66188 8.93938 4.9394" stroke="#198155" stroke-miterlimit="10"/>
<path d="M6 14.5V13ZM2.81813 13.1819L3.87875 12.1213ZM1.5 10H3Z" fill="#198155"/>
<path d="M6 14.5V13M2.81813 13.1819L3.87875 12.1213M1.5 10H3" stroke="#198155" stroke-miterlimit="10" stroke-linecap="round"/>
<path d="M8.93937 4.93937L5.40375 8.47469C5.21622 8.66218 4.9619 8.7675 4.69672 8.7675C4.43154 8.7675 4.17722 8.66218 3.98969 8.47469L3.28125 7.76781C3.18836 7.67495 3.11468 7.5647 3.06442 7.44336C3.01415 7.32202 2.98827 7.19196 2.98827 7.06062C2.98827 6.92928 3.01415 6.79923 3.06442 6.67789C3.11468 6.55655 3.18836 6.4463 3.28125 6.35344L6.81812 2.81781M13.1822 9.18187L9.64656 12.7187C9.5537 12.8116 9.44345 12.8853 9.32211 12.9356C9.20077 12.9858 9.07071 13.0117 8.93937 13.0117C8.80803 13.0117 8.67798 12.9858 8.55664 12.9356C8.4353 12.8853 8.32505 12.8116 8.23218 12.7187L7.52531 12.0116C7.43243 11.9187 7.35875 11.8084 7.30848 11.6871C7.25821 11.5658 7.23234 11.4357 7.23234 11.3044C7.23234 11.173 7.25821 11.043 7.30848 10.9216C7.35875 10.8003 7.43243 10.69 7.52531 10.5972L11.0606 7.06062M4.3625 5.31187L6.48375 7.43343M8.605 9.55469L10.7266 11.6759" stroke="#198155" stroke-linejoin="round"/>
</svg>
