<svg width="24" height="24" viewBox="0 0 24 24" fill="none" xmlns="http://www.w3.org/2000/svg">
<g clip-path="url(#clip0_896_3403)">
<path d="M17.1697 24C17.0381 24.0007 16.9077 23.9755 16.7858 23.9257C16.664 23.876 16.5532 23.8027 16.4597 23.71L8.28974 15.54C7.82411 15.0755 7.45468 14.5238 7.20261 13.9163C6.95055 13.3089 6.8208 12.6577 6.8208 12C6.8208 11.3423 6.95055 10.6911 7.20261 10.0837C7.45468 9.4762 7.82411 8.92445 8.28974 8.45999L16.4597 0.290002C16.553 0.196764 16.6637 0.122803 16.7855 0.0723425C16.9073 0.0218822 17.0379 -0.00408935 17.1697 -0.00408936C17.3016 -0.00408936 17.4322 0.0218822 17.554 0.0723425C17.6758 0.122803 17.7865 0.196764 17.8797 0.290002C17.973 0.38324 18.0469 0.49393 18.0974 0.615752C18.1479 0.737574 18.1738 0.868142 18.1738 1C18.1738 1.13186 18.1479 1.26243 18.0974 1.38425C18.0469 1.50607 17.973 1.61676 17.8797 1.71L9.70974 9.87999C9.14794 10.4425 8.83238 11.205 8.83238 12C8.83238 12.795 9.14794 13.5575 9.70974 14.12L17.8797 22.29C17.9735 22.3829 18.0479 22.4935 18.0986 22.6154C18.1494 22.7373 18.1755 22.868 18.1755 23C18.1755 23.132 18.1494 23.2627 18.0986 23.3846C18.0479 23.5064 17.9735 23.617 17.8797 23.71C17.7863 23.8027 17.6755 23.876 17.5536 23.9257C17.4318 23.9755 17.3013 24.0007 17.1697 24Z" fill="#198155"/>
</g>
<defs>
<clipPath id="clip0_896_3403">
<rect width="24" height="24" fill="white"/>
</clipPath>
</defs>
</svg>
