<svg width="38" height="38" viewBox="0 0 38 38" fill="none" xmlns="http://www.w3.org/2000/svg">
<path d="M30.0832 6.33335H26.9165V4.75002C26.9165 4.33009 26.7497 3.92737 26.4528 3.63043C26.1558 3.3335 25.7531 3.16669 25.3332 3.16669C24.9132 3.16669 24.5105 3.3335 24.2136 3.63043C23.9167 3.92737 23.7498 4.33009 23.7498 4.75002V6.33335H14.2498V4.75002C14.2498 4.33009 14.083 3.92737 13.7861 3.63043C13.4892 3.3335 13.0864 3.16669 12.6665 3.16669C12.2466 3.16669 11.8439 3.3335 11.5469 3.63043C11.25 3.92737 11.0832 4.33009 11.0832 4.75002V6.33335H7.9165C6.65673 6.33335 5.44854 6.8338 4.55775 7.7246C3.66695 8.61539 3.1665 9.82358 3.1665 11.0834V30.0834C3.1665 31.3431 3.66695 32.5513 4.55775 33.4421C5.44854 34.3329 6.65673 34.8334 7.9165 34.8334H30.0832C31.3429 34.8334 32.5511 34.3329 33.4419 33.4421C34.3327 32.5513 34.8332 31.3431 34.8332 30.0834V11.0834C34.8332 9.82358 34.3327 8.61539 33.4419 7.7246C32.5511 6.8338 31.3429 6.33335 30.0832 6.33335ZM31.6665 30.0834C31.6665 30.5033 31.4997 30.906 31.2028 31.2029C30.9058 31.4999 30.5031 31.6667 30.0832 31.6667H7.9165C7.49658 31.6667 7.09385 31.4999 6.79692 31.2029C6.49999 30.906 6.33317 30.5033 6.33317 30.0834V19H31.6665V30.0834ZM31.6665 15.8334H6.33317V11.0834C6.33317 10.6634 6.49999 10.2607 6.79692 9.96377C7.09385 9.66684 7.49658 9.50002 7.9165 9.50002H11.0832V11.0834C11.0832 11.5033 11.25 11.906 11.5469 12.2029C11.8439 12.4999 12.2466 12.6667 12.6665 12.6667C13.0864 12.6667 13.4892 12.4999 13.7861 12.2029C14.083 11.906 14.2498 11.5033 14.2498 11.0834V9.50002H23.7498V11.0834C23.7498 11.5033 23.9167 11.906 24.2136 12.2029C24.5105 12.4999 24.9132 12.6667 25.3332 12.6667C25.7531 12.6667 26.1558 12.4999 26.4528 12.2029C26.7497 11.906 26.9165 11.5033 26.9165 11.0834V9.50002H30.0832C30.5031 9.50002 30.9058 9.66684 31.2028 9.96377C31.4997 10.2607 31.6665 10.6634 31.6665 11.0834V15.8334Z" fill="#198155"/>
</svg>
