<svg width="18" height="16" viewBox="0 0 18 16" fill="none" xmlns="http://www.w3.org/2000/svg">
<path fill-rule="evenodd" clip-rule="evenodd" d="M12.9342 3.27045V8.83822C12.9342 9.44319 12.6818 9.92225 12.2669 10.2404C11.8621 10.5502 11.3399 10.6782 10.8402 10.659C10.2627 10.6373 9.65941 10.4101 9.25415 9.98646C9.14961 10.7495 9.4508 11.2569 9.58757 11.3907L9.90073 11.6963L9.2256 12.2634L8.91244 11.9577C8.53757 11.5917 8.13507 10.729 8.39251 9.60205C7.99852 9.67676 7.5918 9.67761 7.19744 9.60455C6.78435 9.52533 6.37816 9.3548 6.07053 9.06837C5.75553 8.77526 5.5658 8.38042 5.5658 7.90511C5.5658 7.21967 5.83612 6.72435 6.31922 6.36245C6.76593 6.02765 7.37244 5.82669 7.98586 5.64699C8.12955 5.60529 8.2763 5.56318 8.42613 5.52065C9.5954 5.18836 10.924 4.81061 12.1762 3.85166L12.9342 3.27045ZM9.69257 8.81237C9.88645 8.49049 10.1531 8.1461 10.5132 7.78379L10.8218 7.474L10.137 6.91614L9.82843 7.22592C9.37251 7.68455 9.04001 8.13068 8.80422 8.55387C8.4579 8.78402 7.90066 8.887 7.3881 8.7886C7.1104 8.73524 6.88336 8.62892 6.73047 8.48674C6.58494 8.35165 6.48685 8.16653 6.48685 7.9047C6.48685 7.4519 6.64803 7.19799 6.90639 7.00411C7.20066 6.78397 7.64507 6.62303 8.26955 6.44C8.40555 6.40053 8.5477 6.35981 8.69599 6.31784C9.65343 6.04724 10.842 5.71119 12.0132 5.00407V8.83822C12.0132 9.21972 11.8626 9.45779 11.6724 9.6033C11.472 9.75673 11.1874 9.83762 10.8789 9.82594C10.2673 9.80301 9.72297 9.44069 9.69257 8.81237Z" fill="#198155"/>
<path fill-rule="evenodd" clip-rule="evenodd" d="M9.25 14.5928L9.04921 14.968L9.04737 14.9672L9.04184 14.9647L9.02204 14.9559L8.94835 14.9226C8.8848 14.8934 8.7927 14.85 8.67618 14.7933C7.29606 14.117 5.99849 13.311 4.805 12.3884C2.70316 10.7511 0.5 8.32331 0.5 5.3051C0.5 3.94881 0.995987 2.63504 1.8452 1.65274C2.69717 0.668349 3.92263 0 5.36454 0C7.07586 0 8.375 0.878486 9.25 2.1172C10.1245 0.878902 11.4237 0 13.1359 0C14.5774 0 15.8028 0.668349 16.6543 1.65315C17.5045 2.63504 18 3.94839 18 5.30552C18 8.20865 15.7932 10.6369 13.6982 12.2984C12.4249 13.3001 11.0382 14.1772 9.56132 14.9151L9.48809 14.9505L9.46829 14.9601L9.46322 14.9626L9.46092 14.9634L9.25 14.5928ZM2.57053 2.16682C1.85441 2.99486 1.42105 4.12517 1.42105 5.3051C1.42105 7.94931 3.36263 10.1653 5.40553 11.7564C6.58653 12.6686 7.87359 13.4618 9.24401 14.1221L9.37941 14.0537C10.7005 13.3724 11.9439 12.5744 13.0912 11.6713C15.1406 10.0453 17.0789 7.83007 17.0789 5.30468C17.0789 4.12475 16.6456 2.99486 15.9295 2.16682C15.2157 1.3417 14.2393 0.833873 13.1359 0.833873C11.6097 0.833873 10.428 1.73738 9.66355 3.15204L9.25 3.91795L8.83645 3.15287C8.07197 1.73737 6.89026 0.833873 5.36408 0.833873C4.26066 0.833873 3.28434 1.3417 2.57053 2.16682Z" fill="#198155"/>
<path d="M9.25 14.5928L9.46092 14.9634L9.25645 15.0585L9.04921 14.968L9.25 14.5928Z" fill="#1E1E1E"/>
</svg>
