<svg width="16" height="16" viewBox="0 0 16 16" fill="none" xmlns="http://www.w3.org/2000/svg">
<path d="M15.4998 0.499955C15.2654 0.265617 14.9475 0.133972 14.616 0.133972C14.2846 0.133972 13.9667 0.265617 13.7323 0.499955L7.99977 6.23246L2.26727 0.499955C2.03286 0.265617 1.71498 0.133972 1.38352 0.133972C1.05207 0.133972 0.734182 0.265617 0.499772 0.499955C0.265433 0.734365 0.133789 1.05225 0.133789 1.38371C0.133789 1.71516 0.265433 2.03305 0.499772 2.26746L6.23227 7.99996L0.499772 13.7325C0.265433 13.9669 0.133789 14.2847 0.133789 14.6162C0.133789 14.9477 0.265433 15.2655 0.499772 15.5C0.734182 15.7343 1.05207 15.8659 1.38352 15.8659C1.71498 15.8659 2.03286 15.7343 2.26727 15.5L7.99977 9.76745L13.7323 15.5C13.9667 15.7343 14.2846 15.8659 14.616 15.8659C14.9475 15.8659 15.2654 15.7343 15.4998 15.5C15.7341 15.2655 15.8658 14.9477 15.8658 14.6162C15.8658 14.2847 15.7341 13.9669 15.4998 13.7325L9.76727 7.99996L15.4998 2.26746C15.7341 2.03305 15.8658 1.71516 15.8658 1.38371C15.8658 1.05225 15.7341 0.734365 15.4998 0.499955V0.499955Z" fill="#198155"/>
</svg>
