<svg width="18" height="18" viewBox="0 0 18 18" fill="none" xmlns="http://www.w3.org/2000/svg">
<path d="M11.2134 9.44669C11.2134 10.0362 10.9794 10.6016 10.563 11.0185C10.1465 11.4353 9.58173 11.6695 8.9928 11.6695C8.40386 11.6695 7.83905 11.4353 7.42261 11.0185C7.00617 10.6016 6.77222 10.0362 6.77222 9.44669C6.77222 8.85717 7.00617 8.29178 7.42261 7.87492C7.83905 7.45807 8.40386 7.22388 8.9928 7.22388C9.58173 7.22388 10.1465 7.45807 10.563 7.87492C10.9794 8.29178 11.2134 8.85717 11.2134 9.44669Z" stroke="#198155" stroke-width="1.5" stroke-linecap="round" stroke-linejoin="round"/>
<path d="M8.99281 1C10.9558 1 12.544 2.70446 12.544 4.66943C12.8294 4.59415 13.126 4.55651 13.434 4.55651C14.2411 4.55613 15.0244 4.83089 15.6547 5.33555C16.2851 5.84021 16.725 6.54469 16.9021 7.33301C17.0791 8.12133 16.9827 8.94649 16.6287 9.67264C16.2747 10.3988 15.6843 10.9827 14.9546 11.3281C15.2437 11.7192 15.4495 12.1654 15.5594 12.6393C15.6693 13.1132 15.6809 13.6046 15.5935 14.0832C15.5061 14.5617 15.3215 15.0172 15.0512 15.4215C14.7809 15.8258 14.4306 16.1703 14.022 16.4337C13.6134 16.6971 13.1552 16.8737 12.6756 16.9528C12.1961 17.0318 11.7055 17.0115 11.2341 16.8931C10.7627 16.7748 10.3206 16.5609 9.93505 16.2646C9.54955 15.9684 9.22886 15.5961 8.99281 15.1709C8.75676 15.5961 8.43606 15.9684 8.05056 16.2646C7.66505 16.5609 7.22293 16.7748 6.75155 16.8931C6.28016 17.0115 5.78952 17.0318 5.30998 16.9528C4.83044 16.8737 4.3722 16.6971 3.96359 16.4337C3.55498 16.1703 3.2047 15.8258 2.9344 15.4215C2.6641 15.0172 2.47954 14.5617 2.39213 14.0832C2.30471 13.6046 2.31631 13.1132 2.4262 12.6393C2.53609 12.1654 2.74193 11.7192 3.031 11.3281C2.22896 10.951 1.59663 10.2875 1.25809 9.4678C0.919544 8.64809 0.899214 7.73133 1.20109 6.89739C1.50296 6.06345 2.10525 5.37252 2.88978 4.96017C3.67431 4.54782 4.58446 4.44381 5.44166 4.66854C5.44166 2.70534 7.0307 1 8.99281 1Z" stroke="#198155" stroke-width="1.5" stroke-linecap="round" stroke-linejoin="round"/>
</svg>
