<svg width="24" height="25" viewBox="0 0 24 25" fill="none" xmlns="http://www.w3.org/2000/svg">
<g clip-path="url(#clip0_1306_439)">
<path d="M9 12.4999C10.1867 12.4999 11.3467 12.148 12.3334 11.4888C13.3201 10.8295 14.0892 9.8924 14.5433 8.79604C14.9974 7.69969 15.1162 6.49329 14.8847 5.3294C14.6532 4.16551 14.0818 3.09642 13.2426 2.2573C12.4035 1.41819 11.3344 0.846741 10.1705 0.61523C9.00666 0.383719 7.80026 0.502539 6.7039 0.956664C5.60754 1.41079 4.67047 2.17983 4.01118 3.16652C3.35189 4.15321 3 5.31325 3 6.49994C3.00159 8.09075 3.63424 9.61595 4.75911 10.7408C5.88399 11.8657 7.40919 12.4984 9 12.4999ZM9 2.49994C9.79113 2.49994 10.5645 2.73454 11.2223 3.17406C11.8801 3.61359 12.3928 4.2383 12.6955 4.96921C12.9983 5.70011 13.0775 6.50438 12.9231 7.2803C12.7688 8.05623 12.3878 8.76896 11.8284 9.32837C11.269 9.88778 10.5563 10.2687 9.78036 10.4231C9.00444 10.5774 8.20017 10.4982 7.46927 10.1955C6.73836 9.89271 6.11365 9.38002 5.67412 8.72222C5.2346 8.06443 5 7.29107 5 6.49994C5 5.43908 5.42143 4.42166 6.17157 3.67151C6.92172 2.92137 7.93913 2.49994 9 2.49994Z" fill="white"/>
<path d="M9 14.4997C6.61395 14.5026 4.32645 15.4517 2.63925 17.1389C0.952057 18.8261 0.00291096 21.1136 0 23.4997C0 23.7649 0.105357 24.0192 0.292893 24.2068C0.48043 24.3943 0.734784 24.4997 1 24.4997C1.26522 24.4997 1.51957 24.3943 1.70711 24.2068C1.89464 24.0192 2 23.7649 2 23.4997C2 21.6431 2.7375 19.8627 4.05025 18.5499C5.36301 17.2372 7.14348 16.4997 9 16.4997C10.8565 16.4997 12.637 17.2372 13.9497 18.5499C15.2625 19.8627 16 21.6431 16 23.4997C16 23.7649 16.1054 24.0192 16.2929 24.2068C16.4804 24.3943 16.7348 24.4997 17 24.4997C17.2652 24.4997 17.5196 24.3943 17.7071 24.2068C17.8946 24.0192 18 23.7649 18 23.4997C17.9971 21.1136 17.0479 18.8261 15.3607 17.1389C13.6735 15.4517 11.3861 14.5026 9 14.4997Z" fill="white"/>
<path d="M21.9998 8.375C21.4433 8.40272 20.9204 8.64977 20.5456 9.06207C20.1708 9.47437 19.9746 10.0184 19.9998 10.575C20.0251 10.0184 19.8289 9.47437 19.4541 9.06207C19.0792 8.64977 18.5564 8.40272 17.9998 8.375C17.4433 8.40272 16.9204 8.64977 16.5456 9.06207C16.1708 9.47437 15.9746 10.0184 15.9999 10.575C15.9999 12.305 18.2558 14.332 19.3798 15.234C19.5558 15.3749 19.7745 15.4516 19.9998 15.4516C20.2252 15.4516 20.4439 15.3749 20.6198 15.234C21.7438 14.334 23.9998 12.305 23.9998 10.575C24.0251 10.0184 23.8289 9.47437 23.4541 9.06207C23.0792 8.64977 22.5564 8.40272 21.9998 8.375Z" fill="white"/>
</g>
<defs>
<clipPath id="clip0_1306_439">
<rect width="24" height="24" fill="white" transform="translate(0 0.5)"/>
</clipPath>
</defs>
</svg>
