<svg width="16" height="16" viewBox="0 0 16 16" fill="none" xmlns="http://www.w3.org/2000/svg">
<path d="M15.088 7.55325C14.8713 7.36725 12.9315 5.73575 11.5815 5.73575C9.8985 5.73575 9.086 7.2035 8.891 7.97975L8.8615 8.0985C8.61046 8.24178 8.37487 8.41059 8.1585 8.60225C7.92766 8.80801 7.72228 9.04067 7.54675 9.29525C7.53275 9.2285 7.519 9.16175 7.502 9.09725C7.3035 8.372 6.985 7.7305 6.64175 7.107C6.36425 6.61425 6.05775 6.143 5.73675 5.68325L5.7525 5.6515C6.0885 4.9735 6.38525 3.33625 5.1055 1.9945C4.06325 0.90125 1.3475 0.5885 1.0415 0.557L0.5 0.5L0.55325 1.059C0.58375 1.38 0.881 4.22225 1.9215 5.31275C2.50075 5.92 3.22525 6.24125 4.017 6.24125C4.6675 6.24125 5.20375 6.02575 5.44275 5.91125C5.72811 6.37331 5.99148 6.84859 6.232 7.3355C6.5295 7.95275 6.79975 8.59625 6.936 9.239C6.96875 9.39875 6.7435 15.5 6.7435 15.5H7.857C7.857 15.5 7.683 10.4647 7.71375 10.3438C7.84375 9.8405 8.12675 9.36725 8.49975 8.98175C8.66004 8.81791 8.8353 8.66943 9.02325 8.53825C9.349 9.19225 10.152 10.0778 11.5815 10.0778C12.9315 10.0778 14.8713 8.4465 15.088 8.2605L15.5 7.90675L15.088 7.55325Z" fill="#198155"/>
</svg>
