<svg width="25" height="25" viewBox="0 0 25 25" fill="none" xmlns="http://www.w3.org/2000/svg">
<g clip-path="url(#clip0_1306_429)">
<path d="M18 2.41653C16.8739 2.43405 15.7724 2.74839 14.8067 3.32781C13.841 3.90722 13.0453 4.7312 12.5 5.71653C11.9546 4.7312 11.1589 3.90722 10.1932 3.32781C9.2275 2.74839 8.12601 2.43405 6.99996 2.41653C5.2049 2.49453 3.51366 3.27979 2.29574 4.60077C1.07782 5.92175 0.432208 7.67106 0.499958 9.46653C0.499958 14.0135 5.28596 18.9795 9.29996 22.3465C10.1962 23.0997 11.3293 23.5126 12.5 23.5126C13.6706 23.5126 14.8037 23.0997 15.7 22.3465C19.714 18.9795 24.5 14.0135 24.5 9.46653C24.5677 7.67106 23.9221 5.92175 22.7042 4.60077C21.4863 3.27979 19.795 2.49453 18 2.41653ZM14.415 20.8165C13.8789 21.2679 13.2007 21.5154 12.5 21.5154C11.7992 21.5154 11.121 21.2679 10.585 20.8165C5.44696 16.5055 2.49996 12.3695 2.49996 9.46653C2.4316 8.20125 2.86632 6.96026 3.70932 6.01423C4.55232 5.0682 5.73519 4.49388 6.99996 4.41653C8.26472 4.49388 9.4476 5.0682 10.2906 6.01423C11.1336 6.96026 11.5683 8.20125 11.5 9.46653C11.5 9.73175 11.6053 9.9861 11.7929 10.1736C11.9804 10.3612 12.2347 10.4665 12.5 10.4665C12.7652 10.4665 13.0195 10.3612 13.2071 10.1736C13.3946 9.9861 13.5 9.73175 13.5 9.46653C13.4316 8.20125 13.8663 6.96026 14.7093 6.01423C15.5523 5.0682 16.7352 4.49388 18 4.41653C19.2647 4.49388 20.4476 5.0682 21.2906 6.01423C22.1336 6.96026 22.5683 8.20125 22.5 9.46653C22.5 12.3695 19.553 16.5055 14.415 20.8125V20.8165Z" fill="white"/>
</g>
<defs>
<clipPath id="clip0_1306_429">
<rect width="24" height="24" fill="white" transform="translate(0.5 0.5)"/>
</clipPath>
</defs>
</svg>
