<svg width="20" height="18" viewBox="0 0 20 18" fill="none" xmlns="http://www.w3.org/2000/svg">
<path d="M9.34175 3.04938L9.78378 3.88551L10.2258 3.04938C10.6302 2.28437 11.2188 1.64751 11.9297 1.20093C12.636 0.75726 13.4391 0.516382 14.2589 0.500211C15.5768 0.564411 16.8229 1.16994 17.7248 2.19413C18.631 3.22309 19.1147 4.59022 19.0639 5.99734L19.0636 6.00634V6.01535C19.0636 7.79783 18.1615 9.72142 16.8001 11.5937C15.4463 13.4554 13.6835 15.2053 12.0618 16.6294L12.0615 16.6297C11.4204 17.1937 10.6137 17.5 9.78378 17.5C8.95391 17.5 8.1472 17.1937 7.5061 16.6297L7.50576 16.6294C5.88411 15.2053 4.12123 13.4554 2.76752 11.5937C1.40605 9.72142 0.503945 7.79783 0.503945 6.01535V6.00634L0.503621 5.99734C0.452905 4.59022 0.936568 3.22309 1.84272 2.19413C2.74467 1.16994 3.99081 0.564411 5.30863 0.500211C6.12847 0.516382 6.93154 0.75726 7.63784 1.20093C8.34876 1.64751 8.93732 2.28437 9.34175 3.04938ZM11.6751 16.0747L11.8445 15.9254V15.9219C13.8797 14.117 15.4996 12.338 16.6227 10.6879C17.7655 9.00882 18.4295 7.41109 18.4336 6.0283C18.4923 4.82846 18.0976 3.64893 17.3288 2.74563C16.5566 1.83835 15.468 1.28241 14.2982 1.2075L14.2662 1.20546L14.2343 1.2075C13.0644 1.28241 11.9759 1.83835 11.2036 2.74563C10.4354 3.64818 10.0408 4.8265 10.0986 6.02531C10.0962 6.12231 10.0582 6.21079 9.9985 6.27333C9.93747 6.33722 9.85973 6.36859 9.78378 6.36859C9.70784 6.36859 9.63009 6.33722 9.56907 6.27333C9.50933 6.21079 9.47136 6.12231 9.46892 6.02531C9.52681 4.8265 9.13213 3.64818 8.36394 2.74563C7.59172 1.83835 6.50317 1.28241 5.33331 1.2075L5.30136 1.20546L5.26941 1.2075C4.09954 1.28241 3.011 1.83835 2.23878 2.74563C1.46995 3.64893 1.07525 4.82845 1.13394 6.02828C1.13806 7.41107 1.80207 9.00881 2.94485 10.6883C4.09903 12.3845 5.77797 14.2173 7.8931 16.0753C8.41919 16.5388 9.0886 16.796 9.78378 16.796C10.4793 16.796 11.1489 16.5386 11.6751 16.0747Z" fill="#198155" stroke="#198155"/>
</svg>
