<svg width="16" height="16" viewBox="0 0 16 16" fill="none" xmlns="http://www.w3.org/2000/svg">
<g clip-path="url(#clip0_1569_745)">
<path fill-rule="evenodd" clip-rule="evenodd" d="M5.142 11.074L3.23 11.622C2.90817 11.7213 2.56977 11.7554 2.23461 11.7223C1.89945 11.6892 1.57426 11.5895 1.27808 11.4292C0.981901 11.2688 0.720689 11.051 0.509736 10.7885C0.298782 10.5259 0.142327 10.2239 0.0495302 9.90018C-0.0432667 9.57643 -0.0705403 9.23741 -0.0306937 8.90298C0.00915285 8.56855 0.115319 8.24543 0.281588 7.95254C0.447857 7.65965 0.670889 7.40287 0.937624 7.19725C1.20436 6.99162 1.50944 6.84127 1.835 6.75501L3.782 6.19601C4.23214 6.06672 4.70933 6.06492 5.16043 6.19081C5.61154 6.31669 6.01884 6.56532 6.337 6.90901L7.867 1.57401C8.006 1.08901 8.467 0.677006 9.026 0.336006C9.296 0.172006 9.546 0.0580061 9.805 0.0160061C10.619 -0.115994 11.308 0.574006 11.066 1.43801L9.574 6.64301L14.562 5.21301C15.426 4.97101 16.116 5.66001 15.984 6.47301C15.942 6.73301 15.828 6.98301 15.664 7.25301C15.323 7.81301 14.911 8.27301 14.426 8.41301L9.523 9.81701C9.81319 10.1361 10.017 10.5242 10.115 10.9442C10.213 11.3643 10.202 11.8024 10.083 12.217L9.523 14.164C9.43673 14.4896 9.28639 14.7946 9.08076 15.0614C8.87513 15.3281 8.61835 15.5511 8.32546 15.7174C8.03257 15.8837 7.70945 15.9898 7.37502 16.0297C7.04059 16.0695 6.70158 16.0423 6.37782 15.9495C6.05406 15.8567 5.75207 15.7002 5.48953 15.4893C5.22698 15.2783 5.00916 15.0171 4.84882 14.7209C4.68848 14.4247 4.58883 14.0996 4.55572 13.7644C4.52262 13.4292 4.5567 13.0908 4.656 12.769L5.142 11.074ZM5.472 9.92601L5.952 8.25301L5.94 8.21201C5.82885 7.82454 5.56834 7.49709 5.21578 7.30168C4.86322 7.10627 4.44748 7.05891 4.06 7.17001L2.114 7.72801C1.74114 7.85114 1.43041 8.11377 1.24688 8.4609C1.06335 8.80803 1.02128 9.21272 1.12948 9.59017C1.23767 9.96763 1.48774 10.2886 1.82729 10.4858C2.16685 10.683 2.56953 10.7411 2.951 10.648L5.472 9.92601ZM9.245 7.79101L8.915 8.93901L14.147 7.43901C14.471 7.34601 15.329 6.04901 14.841 6.18601L9.245 7.79101ZM5.63 13.049C5.53691 13.4305 5.59505 13.8332 5.79224 14.1727C5.98943 14.5123 6.31037 14.7623 6.68783 14.8705C7.06529 14.9787 7.46997 14.9366 7.8171 14.7531C8.16423 14.5696 8.42687 14.2589 8.55 13.886L9.109 11.939C9.17579 11.7053 9.18558 11.4591 9.13755 11.2208C9.08952 10.9826 8.98507 10.7594 8.83296 10.5698C8.68085 10.3803 8.4855 10.23 8.26332 10.1316C8.04113 10.0331 7.79858 9.98937 7.556 10.004L10.093 1.15901C10.229 0.671006 8.933 1.52901 8.84 1.85301L5.63 13.049ZM6.603 13.328L7.162 11.381C7.18032 11.3171 7.21104 11.2575 7.25241 11.2054C7.29379 11.1534 7.345 11.1101 7.40313 11.0779C7.46126 11.0456 7.52517 11.0252 7.5912 11.0177C7.65724 11.0101 7.72411 11.0157 7.788 11.034C7.85189 11.0523 7.91154 11.083 7.96355 11.1244C8.01557 11.1658 8.05892 11.217 8.09115 11.2751C8.12337 11.3333 8.14383 11.3972 8.15135 11.4632C8.15887 11.5292 8.15332 11.5961 8.135 11.66L7.577 13.607C7.55861 13.671 7.52781 13.7307 7.48635 13.7827C7.44489 13.8348 7.39359 13.8781 7.33536 13.9104C7.27714 13.9426 7.21314 13.963 7.14702 13.9705C7.0809 13.978 7.01395 13.9724 6.95 13.954C6.88604 13.9356 6.82634 13.9048 6.77429 13.8634C6.72224 13.8219 6.67886 13.7706 6.64664 13.7124C6.61442 13.6541 6.59398 13.5902 6.58649 13.524C6.579 13.4579 6.58461 13.391 6.603 13.327M2.673 9.67401C2.60911 9.69239 2.54223 9.69801 2.47616 9.69055C2.4101 9.68309 2.34616 9.66268 2.28798 9.63051C2.22981 9.59833 2.17854 9.55501 2.13711 9.50302C2.09567 9.45103 2.06488 9.39139 2.0465 9.32751C2.02811 9.26362 2.02249 9.19673 2.02995 9.13067C2.03742 9.06461 2.05782 9.00067 2.08999 8.94249C2.12217 8.88432 2.16549 8.83305 2.21748 8.79161C2.26947 8.75018 2.32911 8.71939 2.393 8.70101L4.34 8.14301C4.46903 8.10588 4.60752 8.12152 4.72501 8.1865C4.8425 8.25148 4.92937 8.36048 4.9665 8.48951C5.00363 8.61853 4.98798 8.75703 4.923 8.87452C4.85802 8.99201 4.74902 9.07888 4.62 9.11601L2.673 9.67401Z" fill="#198155"/>
</g>
<defs>
<clipPath id="clip0_1569_745">
<rect width="16" height="16" fill="white"/>
</clipPath>
</defs>
</svg>
