<svg width="20" height="24" viewBox="0 0 20 24" fill="none" xmlns="http://www.w3.org/2000/svg">
<path d="M0 12C0 12.3183 0.131696 12.6235 0.366117 12.8485C0.600537 13.0736 0.918479 13.2 1.25 13.2H10.7375L7.8625 15.948C7.74534 16.0596 7.65235 16.1923 7.58889 16.3385C7.52543 16.4847 7.49275 16.6416 7.49275 16.8C7.49275 16.9584 7.52543 17.1153 7.58889 17.2615C7.65235 17.4077 7.74534 17.5404 7.8625 17.652C7.9787 17.7645 8.11695 17.8537 8.26928 17.9147C8.4216 17.9756 8.58499 18.007 8.75 18.007C8.91501 18.007 9.0784 17.9756 9.23072 17.9147C9.38305 17.8537 9.5213 17.7645 9.6375 17.652L14.6375 12.852C14.7513 12.7379 14.8405 12.6033 14.9 12.456C15.025 12.1638 15.025 11.8362 14.9 11.544C14.8405 11.3967 14.7513 11.2621 14.6375 11.148L9.6375 6.348C9.52095 6.23611 9.38259 6.14736 9.23031 6.08681C9.07803 6.02626 8.91482 5.99509 8.75 5.99509C8.58518 5.99509 8.42197 6.02626 8.26969 6.08681C8.11741 6.14736 7.97905 6.23611 7.8625 6.348C7.74595 6.45989 7.6535 6.59271 7.59043 6.7389C7.52735 6.88509 7.49489 7.04177 7.49489 7.2C7.49489 7.35823 7.52735 7.51491 7.59043 7.6611C7.6535 7.80729 7.74595 7.94011 7.8625 8.052L10.7375 10.8H1.25C0.918479 10.8 0.600537 10.9264 0.366117 11.1515C0.131696 11.3765 0 11.6817 0 12ZM16.25 0H3.75C2.75544 0 1.80161 0.379285 1.09835 1.05442C0.395088 1.72955 0 2.64522 0 3.6V7.2C0 7.51826 0.131696 7.82348 0.366117 8.04853C0.600537 8.27357 0.918479 8.4 1.25 8.4C1.58152 8.4 1.89946 8.27357 2.13388 8.04853C2.3683 7.82348 2.5 7.51826 2.5 7.2V3.6C2.5 3.28174 2.6317 2.97652 2.86612 2.75147C3.10054 2.52643 3.41848 2.4 3.75 2.4H16.25C16.5815 2.4 16.8995 2.52643 17.1339 2.75147C17.3683 2.97652 17.5 3.28174 17.5 3.6V20.4C17.5 20.7183 17.3683 21.0235 17.1339 21.2485C16.8995 21.4736 16.5815 21.6 16.25 21.6H3.75C3.41848 21.6 3.10054 21.4736 2.86612 21.2485C2.6317 21.0235 2.5 20.7183 2.5 20.4V16.8C2.5 16.4817 2.3683 16.1765 2.13388 15.9515C1.89946 15.7264 1.58152 15.6 1.25 15.6C0.918479 15.6 0.600537 15.7264 0.366117 15.9515C0.131696 16.1765 0 16.4817 0 16.8V20.4C0 21.3548 0.395088 22.2705 1.09835 22.9456C1.80161 23.6207 2.75544 24 3.75 24H16.25C17.2446 24 18.1984 23.6207 18.9017 22.9456C19.6049 22.2705 20 21.3548 20 20.4V3.6C20 2.64522 19.6049 1.72955 18.9017 1.05442C18.1984 0.379285 17.2446 0 16.25 0Z" fill="#818181"/>
</svg>
