<svg width="24" height="19" viewBox="0 0 24 19" fill="none" xmlns="http://www.w3.org/2000/svg">
<path d="M23.7763 1.21706C23.76 0.942153 23.6434 0.682764 23.4487 0.488036C23.254 0.293308 22.9946 0.176768 22.7197 0.160497C17.7256 -0.132941 13.7009 1.413 11.9534 4.29862C10.8153 6.17362 10.7759 8.43956 11.8166 10.608C11.31 11.2541 10.9204 11.9839 10.6653 12.7642L9.47844 11.5774C10.1525 10.0052 10.0813 8.37956 9.25344 7.01268C7.94282 4.84612 4.95782 3.68737 1.26969 3.90018C0.994636 3.91648 0.735122 4.03315 0.540373 4.22807C0.345623 4.423 0.229181 4.68261 0.213131 4.95768C-0.000619188 8.64581 1.15813 11.6308 3.32282 12.9414C4.05699 13.3889 4.90054 13.6248 5.76032 13.623C6.49336 13.6171 7.21749 13.4617 7.88844 13.1664L10.3119 15.5936V17.7499C10.3119 18.0482 10.4304 18.3344 10.6414 18.5454C10.8524 18.7563 11.1385 18.8749 11.4369 18.8749C11.7352 18.8749 12.0214 18.7563 12.2324 18.5454C12.4434 18.3344 12.5619 18.0482 12.5619 17.7499V14.9852C12.5596 13.9795 12.8705 12.9982 13.4516 12.1774C14.3928 12.6232 15.4195 12.8596 16.4609 12.8702C17.5815 12.8728 18.6809 12.5659 19.6381 11.9833C22.5228 10.2358 24.0706 6.21112 23.7763 1.21706ZM4.48813 11.0167C3.25157 10.2667 2.50251 8.44237 2.44157 6.12956C4.75438 6.1905 6.57969 6.93956 7.32876 8.17612C7.62169 8.65259 7.74184 9.21531 7.66907 9.76987L6.60688 8.70393C6.39554 8.49259 6.10889 8.37386 5.81001 8.37386C5.51112 8.37386 5.22447 8.49259 5.01313 8.70393C4.80179 8.91528 4.68305 9.20192 4.68305 9.50081C4.68305 9.7997 4.80179 10.0863 5.01313 10.2977L6.07626 11.3608C5.5232 11.4291 4.96334 11.3078 4.48813 11.0167ZM18.4728 10.0624C17.4734 10.6671 16.3166 10.7814 15.1156 10.4149L18.6078 6.92362C18.8192 6.71228 18.9379 6.42563 18.9379 6.12675C18.9379 5.82786 18.8192 5.54122 18.6078 5.32987C18.3965 5.11853 18.1098 4.9998 17.8109 4.9998C17.5121 4.9998 17.2254 5.11853 17.0141 5.32987L13.5219 8.82112C13.1591 7.62487 13.2734 6.46331 13.8744 5.46862C15.065 3.49987 17.8728 2.37487 21.4981 2.37487H21.5619C21.575 6.03112 20.45 8.8605 18.4728 10.0624Z" fill="white"/>
</svg>
