<svg width="16" height="16" viewBox="0 0 16 16" fill="none" xmlns="http://www.w3.org/2000/svg">
<g clip-path="url(#clip0_1569_751)">
<path d="M8 0.833336C8.13261 0.833336 8.25978 0.886014 8.35355 0.979782C8.44732 1.07355 8.5 1.20073 8.5 1.33334V2C8.5 2.13261 8.44732 2.25979 8.35355 2.35356C8.25978 2.44732 8.13261 2.5 8 2.5C7.86739 2.5 7.74022 2.44732 7.64645 2.35356C7.55268 2.25979 7.5 2.13261 7.5 2V1.33334C7.5 1.20073 7.55268 1.07355 7.64645 0.979782C7.74022 0.886014 7.86739 0.833336 8 0.833336Z" fill="#198155"/>
<path fill-rule="evenodd" clip-rule="evenodd" d="M4.16667 8C4.16667 6.98333 4.57054 6.00831 5.28943 5.28942C6.00832 4.57053 6.98334 4.16666 8 4.16666C9.01667 4.16666 9.99169 4.57053 10.7106 5.28942C11.4295 6.00831 11.8333 6.98333 11.8333 8C11.8333 9.01666 11.4295 9.99168 10.7106 10.7106C9.99169 11.4295 9.01667 11.8333 8 11.8333C6.98334 11.8333 6.00832 11.4295 5.28943 10.7106C4.57054 9.99168 4.16667 9.01666 4.16667 8ZM8 5.16666C7.62793 5.16666 7.25949 5.23995 6.91574 5.38234C6.57198 5.52473 6.25963 5.73343 5.99654 5.99653C5.73344 6.25963 5.52473 6.57197 5.38235 6.91573C5.23996 7.25948 5.16667 7.62792 5.16667 8C5.16667 8.37208 5.23996 8.74051 5.38235 9.08427C5.52473 9.42802 5.73344 9.74037 5.99654 10.0035C6.25963 10.2666 6.57198 10.4753 6.91574 10.6177C7.25949 10.76 7.62793 10.8333 8 10.8333C8.75145 10.8333 9.47212 10.5348 10.0035 10.0035C10.5348 9.47211 10.8333 8.75144 10.8333 8C10.8333 7.24855 10.5348 6.52788 10.0035 5.99653C9.47212 5.46517 8.75145 5.16666 8 5.16666Z" fill="#198155"/>
<path d="M3.63999 2.93267C3.54574 2.84155 3.41946 2.79109 3.28836 2.79216C3.15726 2.79324 3.03183 2.84577 2.93908 2.93843C2.84633 3.03109 2.79369 3.15647 2.79249 3.28757C2.79129 3.41867 2.84163 3.54499 2.93266 3.63934L3.40399 4.11067C3.44977 4.15979 3.50497 4.1992 3.5663 4.22652C3.62764 4.25385 3.69384 4.26855 3.76098 4.26973C3.82812 4.27092 3.8948 4.25857 3.95706 4.23342C4.01932 4.20827 4.07587 4.17084 4.12335 4.12336C4.17083 4.07588 4.20826 4.01933 4.23341 3.95707C4.25856 3.89481 4.27091 3.82812 4.26972 3.76099C4.26854 3.69385 4.25384 3.62764 4.22652 3.56631C4.19919 3.50498 4.15979 3.44978 4.11066 3.404L3.63999 2.93267ZM15.1667 8C15.1667 8.13261 15.114 8.25979 15.0202 8.35356C14.9264 8.44732 14.7993 8.5 14.6667 8.5H14C13.8674 8.5 13.7402 8.44732 13.6464 8.35356C13.5527 8.25979 13.5 8.13261 13.5 8C13.5 7.86739 13.5527 7.74022 13.6464 7.64645C13.7402 7.55268 13.8674 7.5 14 7.5H14.6667C14.7993 7.5 14.9264 7.55268 15.0202 7.64645C15.114 7.74022 15.1667 7.86739 15.1667 8ZM13.0673 3.64C13.1151 3.5939 13.1532 3.53875 13.1795 3.47776C13.2057 3.41677 13.2195 3.35117 13.2201 3.28478C13.2207 3.21839 13.2081 3.15254 13.183 3.09108C13.1579 3.02962 13.1208 2.97378 13.0739 2.92681C13.0269 2.87984 12.9711 2.84269 12.9097 2.81752C12.8483 2.79235 12.7824 2.77967 12.716 2.78021C12.6496 2.78076 12.584 2.79452 12.523 2.8207C12.462 2.84687 12.4068 2.88494 12.3607 2.93267L11.8893 3.404C11.8402 3.44978 11.8008 3.50498 11.7735 3.56631C11.7461 3.62764 11.7315 3.69385 11.7303 3.76099C11.7291 3.82812 11.7414 3.89481 11.7666 3.95707C11.7917 4.01933 11.8292 4.07588 11.8766 4.12336C11.9241 4.17084 11.9807 4.20827 12.0429 4.23342C12.1052 4.25857 12.1719 4.27092 12.239 4.26973C12.3061 4.26855 12.3724 4.25385 12.4337 4.22652C12.495 4.1992 12.5502 4.15979 12.596 4.11067L13.0673 3.64ZM7.99999 13.5C8.1326 13.5 8.25978 13.5527 8.35355 13.6464C8.44732 13.7402 8.49999 13.8674 8.49999 14V14.6667C8.49999 14.7993 8.44732 14.9265 8.35355 15.0202C8.25978 15.114 8.1326 15.1667 7.99999 15.1667C7.86739 15.1667 7.74021 15.114 7.64644 15.0202C7.55267 14.9265 7.49999 14.7993 7.49999 14.6667V14C7.49999 13.8674 7.55267 13.7402 7.64644 13.6464C7.74021 13.5527 7.86739 13.5 7.99999 13.5ZM12.596 11.8893C12.5502 11.8402 12.495 11.8008 12.4337 11.7735C12.3724 11.7462 12.3061 11.7315 12.239 11.7303C12.1719 11.7291 12.1052 11.7414 12.0429 11.7666C11.9807 11.7917 11.9241 11.8292 11.8766 11.8766C11.8292 11.9241 11.7917 11.9807 11.7666 12.0429C11.7414 12.1052 11.7291 12.1719 11.7303 12.239C11.7315 12.3062 11.7461 12.3724 11.7735 12.4337C11.8008 12.495 11.8402 12.5502 11.8893 12.596L12.3607 13.0673C12.4064 13.1165 12.4616 13.1559 12.523 13.1832C12.5843 13.2105 12.6505 13.2252 12.7176 13.2264C12.7848 13.2276 12.8515 13.2152 12.9137 13.1901C12.976 13.1649 13.0325 13.1275 13.08 13.08C13.1275 13.0325 13.1649 12.976 13.1901 12.9137C13.2152 12.8515 13.2276 12.7848 13.2264 12.7177C13.2252 12.6505 13.2105 12.5843 13.1832 12.523C13.1559 12.4616 13.1165 12.4064 13.0673 12.3607L12.596 11.8893ZM2.49999 8C2.49999 8.13261 2.44732 8.25979 2.35355 8.35356C2.25978 8.44732 2.1326 8.5 1.99999 8.5H1.33333C1.20072 8.5 1.07354 8.44732 0.979775 8.35356C0.886007 8.25979 0.833328 8.13261 0.833328 8C0.833328 7.86739 0.886007 7.74022 0.979775 7.64645C1.07354 7.55268 1.20072 7.5 1.33333 7.5H1.99999C2.1326 7.5 2.25978 7.55268 2.35355 7.64645C2.44732 7.74022 2.49999 7.86739 2.49999 8ZM4.11066 12.596C4.19898 12.5012 4.24706 12.3759 4.24478 12.2463C4.24249 12.1168 4.19002 11.9932 4.09841 11.9016C4.0068 11.81 3.88321 11.7575 3.75368 11.7552C3.62414 11.7529 3.49878 11.801 3.40399 11.8893L2.93266 12.3607C2.84434 12.4555 2.79626 12.5808 2.79854 12.7104C2.80083 12.8399 2.85331 12.9635 2.94491 13.0551C3.03652 13.1467 3.16011 13.1992 3.28965 13.2015C3.41918 13.2037 3.54454 13.1557 3.63933 13.0673L4.11066 12.596Z" fill="#198155"/>
</g>
<defs>
<clipPath id="clip0_1569_751">
<rect width="16" height="16" fill="white"/>
</clipPath>
</defs>
</svg>
