<svg width="20" height="21" viewBox="0 0 20 21" fill="none" xmlns="http://www.w3.org/2000/svg">
<path d="M10 20.5C8.61667 20.5 7.31667 20.2373 6.1 19.712C4.88334 19.1867 3.825 18.4743 2.925 17.575C2.025 16.6757 1.31267 15.6173 0.788001 14.4C0.263335 13.1827 0.000667932 11.8827 1.26582e-06 10.5C-0.000665401 9.11733 0.262001 7.81733 0.788001 6.6C1.314 5.38267 2.02633 4.32433 2.925 3.425C3.82367 2.52567 4.882 1.81333 6.1 1.288C7.318 0.762667 8.618 0.5 10 0.5C10.2833 0.5 10.521 0.596 10.713 0.788C10.905 0.98 11.0007 1.21733 11 1.5V8.775C11.3 8.95833 11.5417 9.196 11.725 9.488C11.9083 9.78 12 10.1173 12 10.5C12 11.05 11.8043 11.521 11.413 11.913C11.0217 12.305 10.5507 12.5007 10 12.5C9.44933 12.4993 8.97867 12.3037 8.588 11.913C8.19733 11.5223 8.00133 11.0513 8 10.5C8 10.1167 8.09167 9.775 8.275 9.475C8.45833 9.175 8.7 8.94167 9 8.775V6.625C8.13333 6.85833 7.41667 7.32933 6.85 8.038C6.28334 8.74667 6 9.56733 6 10.5C6 11.6 6.39167 12.5417 7.175 13.325C7.95833 14.1083 8.9 14.5 10 14.5C11.1 14.5 12.0417 14.1083 12.825 13.325C13.6083 12.5417 14 11.6 14 10.5C14 10.0667 13.9377 9.66667 13.813 9.3C13.6883 8.93333 13.5173 8.58333 13.3 8.25C13.1333 8.01667 13.0583 7.75833 13.075 7.475C13.0917 7.19167 13.1917 6.95833 13.375 6.775C13.575 6.575 13.8127 6.475 14.088 6.475C14.3633 6.475 14.584 6.59167 14.75 6.825C15.1333 7.34167 15.4377 7.90833 15.663 8.525C15.8883 9.14167 16.0007 9.8 16 10.5C16 12.1667 15.4167 13.5833 14.25 14.75C13.0833 15.9167 11.6667 16.5 10 16.5C8.33333 16.5 6.91667 15.9167 5.75 14.75C4.58333 13.5833 4 12.1667 4 10.5C4 9 4.475 7.696 5.425 6.588C6.375 5.48 7.56667 4.809 9 4.575V2.55C7.01667 2.8 5.354 3.675 4.012 5.175C2.67 6.675 1.99933 8.45 2 10.5C2 12.7333 2.775 14.625 4.325 16.175C5.875 17.725 7.76667 18.5 10 18.5C12.2333 18.5 14.125 17.725 15.675 16.175C17.225 14.625 18 12.7333 18 10.5C18 9.53333 17.8417 8.62067 17.525 7.762C17.2083 6.90333 16.7583 6.12433 16.175 5.425C15.9917 5.20833 15.9 4.95833 15.9 4.675C15.9 4.39167 16 4.15 16.2 3.95C16.4 3.75 16.6377 3.65433 16.913 3.663C17.1883 3.67167 17.4173 3.784 17.6 4C18.35 4.88333 18.9377 5.875 19.363 6.975C19.7883 8.075 20.0007 9.25 20 10.5C20 11.8833 19.7373 13.1833 19.212 14.4C18.6867 15.6167 17.9743 16.675 17.075 17.575C16.1757 18.475 15.1173 19.1877 13.9 19.713C12.6827 20.2383 11.3827 20.5007 10 20.5Z" fill="white"/>
</svg>
