<svg width="16" height="16" viewBox="0 0 16 16" fill="none" xmlns="http://www.w3.org/2000/svg">
<path d="M7.765 8.76497L9.08312 7.44685C9.59328 7.71824 10.1609 7.86375 10.7387 7.87122C11.2865 7.87254 11.824 7.72243 12.2919 7.43747C13.7337 6.56247 14.5056 4.52935 14.3544 1.99435C14.349 1.9026 14.3102 1.81602 14.2452 1.75104C14.1802 1.68606 14.0936 1.6472 14.0019 1.64185C11.4669 1.4931 9.43187 2.26685 8.55875 3.70435C7.9825 4.6556 7.98375 5.81122 8.55 6.91372L7.5 7.96935L6.585 7.05497C6.98 6.24247 6.96937 5.39247 6.54312 4.68872C5.88812 3.60747 4.375 3.02747 2.49062 3.1381C2.39888 3.14345 2.3123 3.18231 2.24732 3.24729C2.18234 3.31227 2.14348 3.39885 2.13812 3.4906C2.0275 5.37497 2.6075 6.88747 3.6875 7.5431C4.04501 7.76144 4.45609 7.87632 4.875 7.87497C5.28606 7.87003 5.69063 7.77172 6.05812 7.58747L6.96937 8.49997L6.34437 9.12497H3.5C3.40054 9.12497 3.30516 9.16448 3.23483 9.23481C3.16451 9.30513 3.125 9.40051 3.125 9.49997C3.125 9.59943 3.16451 9.69481 3.23483 9.76514C3.30516 9.83546 3.40054 9.87497 3.5 9.87497H4.19875L5.04687 13.6875C5.08865 13.8828 5.19639 14.0577 5.35199 14.1829C5.50758 14.3081 5.70154 14.3759 5.90125 14.375H10.0994C10.299 14.3758 10.4928 14.3079 10.6483 14.1827C10.8037 14.0575 10.9114 13.8827 10.9531 13.6875L11.8012 9.87497H12.5C12.5995 9.87497 12.6948 9.83546 12.7652 9.76514C12.8355 9.69481 12.875 9.59943 12.875 9.49997C12.875 9.40051 12.8355 9.30513 12.7652 9.23481C12.6948 9.16448 12.5995 9.12497 12.5 9.12497H7.405L7.765 8.76497ZM9.2025 4.09622C9.89 2.95747 11.53 2.3256 13.6225 2.37747C13.6744 4.46935 13.0425 6.10747 11.9037 6.79747C11.135 7.26247 10.2106 7.22997 9.29187 6.7081C8.76937 5.78935 8.73687 4.86497 9.2025 4.09622ZM5.84875 6.84622C5.22375 7.19372 4.59875 7.2131 4.0775 6.89872C3.29875 6.42935 2.85937 5.31247 2.875 3.87497C4.3125 3.85685 5.43 4.29872 5.90125 5.07747C6.21562 5.59622 6.19625 6.22247 5.84875 6.84872V6.84622ZM11.0325 9.87497L10.22 13.5268C10.2139 13.5546 10.1985 13.5795 10.1763 13.5973C10.1542 13.6152 10.1266 13.6249 10.0981 13.625H5.90125C5.87227 13.6256 5.84395 13.6162 5.82115 13.5983C5.79834 13.5804 5.78247 13.5552 5.77625 13.5268L4.9675 9.87497H11.0325Z" fill="#198155"/>
</svg>
