<svg width="15" height="14" viewBox="0 0 15 14" fill="none" xmlns="http://www.w3.org/2000/svg">
<path d="M12.3753 2.85765C11.8203 3.45882 11.6779 4.32353 11.9403 5.06471L9.75057 7.46941V5.76471C9.75057 5.31177 9.4131 4.94118 9.00065 4.94118H8.22823C8.25073 4.80118 8.25073 4.66941 8.25073 4.52941C8.25073 2.02588 6.40593 1.99189e-06 4.12617 1.99189e-06C3.27666 -0.00087292 2.44764 0.286492 1.75253 0.822788C1.05741 1.35908 0.530151 2.11812 0.242869 2.99606C-0.0444138 3.874 -0.0776869 4.82796 0.147601 5.72746C0.372888 6.62696 0.845734 7.42806 1.50146 8.02118V13.1765C1.50146 13.6294 1.83892 14 2.25137 14H9.00065C9.4131 14 9.75057 13.6294 9.75057 13.1765V9.79177L12.9977 6.22588C13.6726 6.51412 14.4601 6.36588 15 5.76471L12.3753 2.85765ZM1.53895 4.94118C1.52395 4.80118 1.50146 4.66941 1.50146 4.52941C1.50146 2.94 2.67883 1.64706 4.12617 1.64706C5.57352 1.64706 6.75089 2.94 6.75089 4.52941C6.75089 4.66941 6.72839 4.80118 6.71339 4.94118M8.25073 12.3529H3.00129V6.58824H8.25073V12.3529Z" fill="#198155"/>
</svg>
